# xmcd CD database file
#
# Track frame offsets:
#	150
#	16910
#	35395
#	50617
#
# Disc length: 893 seconds
#
# Revision: 0
# Processed by: cddbd v1.5.1PL0 Copyright (c) Steve Scherf et al.
# Submitted via: CDex 1.51
#
DISCID=28037b04
DTITLE=Marc Almond - The Idol
DYEAR=1995
DGENRE=New Age
TTITLE0=The Idol (Part 1)
TTITLE1=Law of the night
TTITLE2=Adored and explored (Live at Radio One)
TTITLE3=Bedsitter (Live at Radio One)
EXTD=YEAR: 1995
EXTT0=
EXTT1=
EXTT2=
EXTT3=
PLAYORDER=
